inDegrees=no
num_controls=7
num_derivatives=13
num_iterations=124
num_multipliers=7
num_parameters=0
num_slacks=7
num_states=26
objective=0.729133
objective_accelerations=0.214671
objective_balance=0.004310
objective_effort=0.010712
objective_height=0.493694
objective_ligament=0.005746
solver_duration=1653.316369
status=Solve_Succeeded
success=true
DataType=double
version=3
OpenSimVersion=4.5
endheader
time	/jointset/ground_pelvis/pelvis_tilt/value	/jointset/ground_pelvis/pelvis_tx/value	/jointset/ground_pelvis/pelvis_ty/value	/jointset/hip_l/hip_flexion_l/value	/jointset/hip_l/hip_adduction_l/value	/jointset/hip_l/hip_rotation_l/value	/jointset/back/lumbar_extension/value	/jointset/patellofemoral_l/patellar_flexion_l/value	/jointset/knee_l/knee_flexion_l/value	/jointset/knee_l/knee_adduction_l/value	/jointset/knee_l/knee_rotation_l/value	/jointset/ankle_l/ankle_angle_l/value	/jointset/subtalar_l/subtalar_angle_l/value	/jointset/ground_pelvis/pelvis_tilt/speed	/jointset/ground_pelvis/pelvis_tx/speed	/jointset/ground_pelvis/pelvis_ty/speed	/jointset/hip_l/hip_flexion_l/speed	/jointset/hip_l/hip_adduction_l/speed	/jointset/hip_l/hip_rotation_l/speed	/jointset/back/lumbar_extension/speed	/jointset/patellofemoral_l/patellar_flexion_l/speed	/jointset/knee_l/knee_flexion_l/speed	/jointset/knee_l/knee_adduction_l/speed	/jointset/knee_l/knee_rotation_l/speed	/jointset/ankle_l/ankle_angle_l/speed	/jointset/subtalar_l/subtalar_angle_l/speed	/forceset/tau_hip_flexion_l	/forceset/tau_hip_adduction_l	/forceset/tau_hip_rotation_l	/forceset/tau_knee_flexion_l	/forceset/tau_ankle_angle_l	/forceset/tau_subtalar_angle_l	/forceset/tau_lumbar_extension	lambda_cid13_p0	lambda_cid13_p1	lambda_cid13_p2	lambda_cid13_p3	lambda_cid13_p4	lambda_cid13_p5	lambda_cid14_p0	/jointset/ground_pelvis/pelvis_tilt/accel	/jointset/ground_pelvis/pelvis_tx/accel	/jointset/ground_pelvis/pelvis_ty/accel	/jointset/hip_l/hip_flexion_l/accel	/jointset/hip_l/hip_adduction_l/accel	/jointset/hip_l/hip_rotation_l/accel	/jointset/back/lumbar_extension/accel	/jointset/patellofemoral_l/patellar_flexion_l/accel	/jointset/knee_l/knee_flexion_l/accel	/jointset/knee_l/knee_adduction_l/accel	/jointset/knee_l/knee_rotation_l/accel	/jointset/ankle_l/ankle_angle_l/accel	/jointset/subtalar_l/subtalar_angle_l/accel	gamma_cid13_p0	gamma_cid13_p1	gamma_cid13_p2	gamma_cid13_p3	gamma_cid13_p4	gamma_cid13_p5	gamma_cid14_p0
1	0.052835636576599	0.08966808844762512	0.9416666788420792	0.1335195217698226	-0.1727988637949206	-0.1530650424043677	-0.4098156847134866	0.1460954602231941	0.1460954602231188	0.03515407162939931	0.06093483803500139	0.0282274280693777	0.1409486628405875	0.1095959095238412	0.03914829838258752	0.01753389247440683	-0.2564802482851545	0.002863361525692897	-0.0195448780095809	-0.004927609213084663	-0.1463640658650451	-0.146364065865044	-0.01854014143430429	0.0134026944405169	-0.004110689537206881	0.001548152861607568	-0.02093271613747285	0.0817979935497254	0.01746401313238798	-0.08886770188283206	0.06818274351179471	-0.05075628860523736	0.1173627585806669	-28.85215972654925	29.20501075969599	-7.520227457162669	9.011532563010221	-703.1254733796222	-18.54388880047157	-16.13223907261206	0.1157027715864767	-0.1028906955347882	-0.006836397679053019	0.01391164946870721	0.006251172937928708	0.0139904976797595	0.06566535069817037	0.02244862910632682	0.02244862910632686	0.0101175219423331	-0.007709027351273198	-0.1079265595006014	-0.0425840966828064	1.896155882838458e-10	3.568885561981023e-09	2.398826897367412e-10	3.169745696756466e-10	8.864769238991625e-10	6.54947267841392e-10	1.293405758236407e-10
1.01	0.05393735562784589	0.09005441654224083	0.9418416750390058	0.1309554692597308	-0.1727699103898699	-0.1532598513353815	-0.4098616988733133	0.1446329601385029	0.1446329601383766	0.03496919717054409	0.06106841724615954	0.02818092118973979	0.1409620222720734	0.1107438719129671	0.03811608469482566	0.0174649999677329	-0.256321442186716	0.0029272142027726	-0.01941623851184167	-0.004275409296098291	-0.1461309474019337	-0.1461309474019355	-0.01843404235336502	0.01331267004769659	-0.005190283939530247	0.001123793011946233	-0.02011743190835041	0.0815163886645992	0.01750084870341252	-0.08872059885888679	0.06810936285843616	-0.05094311455665779	0.1168851351847904	-28.88866025358765	29.27724069963752	-7.514267121085817	9.011866436267441	-703.1155043528141	-18.56042186284167	-16.08695786434556	0.1137386059224942	-0.1035720178529382	-0.006967523709045953	0.01818678239660874	0.006435890712682295	0.0124012043916291	0.0649693311948689	0.02449398152293756	0.02449398152376286	0.01096296863253333	-0.009720864528375041	-0.1079153500722202	-0.04235359755779514	1.80560521559538e-10	3.610492548208839e-09	2.545301670421151e-10	3.258411957304681e-10	9.734352674115777e-10	6.360361508602754e-10	1.240182694621015e-10
1.02	0.05505043342962097	0.09043038543749429	0.9420159719415447	0.1283932691491665	-0.1727403217427743	-0.1534533537657179	-0.4099011966301754	0.1431729413437089	0.1431729413436225	0.03478540507570938	0.06120108186937254	0.02812363047214545	0.1409711397713833	0.1118676596360754	0.037076458510136	0.01739403359686991	-0.256109768393491	0.002990409904399834	-0.01928357787129982	-0.003624328619493654	-0.1458678078744398	-0.1458678078744445	-0.01832366857375353	0.01321977688366504	-0.006267457120825095	0.0006997664243265896	-0.01930214767870378	0.08123478378005408	0.01753768427581373	-0.08857349583468813	0.06803598220510135	-0.05112994050745603	0.1164075117892316	-28.92526562615513	29.34930873471108	-7.508075069864552	9.018775682354811	-703.1043106319327	-18.57651173356957	-16.0415039878502	0.1108678383828949	-0.1043731949206141	-0.007251170516859746	0.02448518842592717	0.006119777847222795	0.01479472624027982	0.06544150262185788	0.02845284198278394	0.02845284198278397	0.01097246167632125	-0.00828278159373233	-0.1074423152952389	-0.0425174442748615	1.955665420446943e-10	3.671500759257546e-09	2.43026575701703e-10	3.33316470512639e-10	1.188353509781107e-09	7.142015177526111e-10	1.237754354813456e-10
1.03	0.05617463116859063	0.09079592248082691	0.9421895495891364	0.1258334404769685	-0.172710103130756	-0.1536455126923499	-0.4099341949880041	0.1417156956779468	0.1417156956778163	0.03460273915574711	0.06133280212247963	0.02805557853443217	0.140976019468123	0.1129676912659781	0.03602983045131952	0.01732115396110768	-0.2558471244477313	0.003053211427019114	-0.01914760799441225	-0.002975637261350216	-0.1455763524135853	-0.1455763524135893	-0.01820879424101874	0.01312375711987162	-0.007342414522843558	0.0002762958984684979	-0.01845476855954477	0.08094368931936463	0.01757747733200212	-0.08848668365969684	0.06804553856367815	-0.05131382727047138	0.1159081172762922	-28.935309067384	29.41948957396891	-7.506196908534941	9.012472928837122	-703.0950274098029	-18.5942320935568	-15.99588773942801	0.108941243079131	-0.10497549946629	-0.007357371877069427	0.02848020038787421	0.00634453968226642	0.0130881171502138	0.06453880548886955	0.03023780378344849	0.03023780378478069	0.0118537799344893	-0.01033912923883699	-0.1074448995867504	-0.04224403237951644	2.108180838279065e-10	3.732706941988099e-09	2.31256136722048e-10	3.407775478328441e-10	1.404577465404282e-09	7.93357461011003e-10	1.235844328514141e-10
